<svg width="135" height="32" viewBox="0 0 135 32" fill="none" xmlns="http://www.w3.org/2000/svg">
<path d="M8.07992 27.8833C9.69325 28.6167 11.7466 28.6167 13.3599 27.8833C14.9733 27.15 17.0266 27.15 18.6399 27.8833C20.2532 28.6167 22.3066 28.6167 23.9199 27.8833M15.9998 4V6.66667M5.33317 17.3333H2.6665M8.41866 9.75215L6.53304 7.86654M23.5806 9.75215L25.4662 7.86654M29.3332 17.3333H26.6665M9.33317 17.3333C9.33317 13.6514 12.3179 10.6667 15.9998 10.6667C19.6817 10.6667 22.6665 13.6514 22.6665 17.3333M2.79997 23.2167C4.4133 22.4833 6.46663 22.4833 8.07997 23.2167C9.6933 23.95 11.7466 23.95 13.36 23.2167C14.9733 22.4833 17.0266 22.4833 18.64 23.2167C20.2533 23.95 22.3066 23.95 23.92 23.2167C25.5333 22.4833 27.5866 22.4833 29.2 23.2167" stroke="#20367E" stroke-width="3" stroke-linecap="square"/>
<path d="M48.0352 25.4102C47.0143 25.4102 46.1211 25.1458 45.3555 24.6172C44.5898 24.0703 44.0065 23.4232 43.6055 22.6758V25H40.1328V5.3125H43.6055V12.75C44.1159 12.1667 44.7448 11.7018 45.4922 11.3555C46.2578 11.0091 47.0234 10.8359 47.7891 10.8359C48.974 10.8359 50.0495 11.1276 51.0156 11.7109C52 12.2943 52.7747 13.1328 53.3398 14.2266C53.9232 15.3203 54.2148 16.6419 54.2148 18.1914C54.2148 19.7227 53.9323 21.026 53.3672 22.1016C52.8021 23.1771 52.0456 23.9974 51.0977 24.5625C50.168 25.1276 49.1471 25.4102 48.0352 25.4102ZM47.1602 21.9102C47.8529 21.9102 48.4544 21.7461 48.9648 21.418C49.4753 21.0716 49.8763 20.6159 50.168 20.0508C50.4596 19.4857 50.6055 18.8659 50.6055 18.1914C50.6055 17.4987 50.4596 16.8516 50.168 16.25C49.8763 15.6484 49.4661 15.1654 48.9375 14.8008C48.4271 14.4362 47.8073 14.2539 47.0781 14.2539C46.4036 14.2539 45.7839 14.4089 45.2188 14.7188C44.6536 15.0104 44.1159 15.4206 43.6055 15.9492V17.918C43.6055 18.7383 43.7695 19.4492 44.0977 20.0508C44.444 20.6523 44.8906 21.1172 45.4375 21.4453C45.9844 21.7552 46.5586 21.9102 47.1602 21.9102ZM62.8292 25.4102C61.8266 25.4102 60.8787 25.2279 59.9855 24.8633C59.1105 24.4805 58.3266 23.9609 57.6339 23.3047C56.9412 22.6484 56.4034 21.8828 56.0206 21.0078C55.6378 20.1146 55.4464 19.1576 55.4464 18.1367C55.4464 17.1159 55.6378 16.168 56.0206 15.293C56.4034 14.3997 56.9412 13.625 57.6339 12.9688C58.3266 12.2943 59.1105 11.7747 59.9855 11.4102C60.8787 11.0273 61.8266 10.8359 62.8292 10.8359C63.8318 10.8359 64.7797 11.0273 65.673 11.4102C66.5662 11.7747 67.3501 12.2943 68.0245 12.9688C68.7172 13.625 69.255 14.3997 69.6378 15.293C70.0389 16.168 70.2394 17.1159 70.2394 18.1367C70.2394 19.1576 70.0389 20.1146 69.6378 21.0078C69.255 21.8828 68.7172 22.6484 68.0245 23.3047C67.3501 23.9609 66.5662 24.4805 65.673 24.8633C64.7797 25.2279 63.8318 25.4102 62.8292 25.4102ZM62.8292 22.0469C63.5037 22.0469 64.1144 21.901 64.6612 21.6094C65.2264 21.2995 65.6821 20.8529 66.0284 20.2695C66.3748 19.668 66.548 18.957 66.548 18.1367C66.548 17.2799 66.3748 16.5599 66.0284 15.9766C65.6821 15.3932 65.2264 14.9557 64.6612 14.6641C64.1144 14.3542 63.5037 14.1992 62.8292 14.1992C62.1912 14.1992 61.5805 14.3542 60.9972 14.6641C60.4321 14.9557 59.9764 15.3932 59.63 15.9766C59.3019 16.5599 59.1378 17.2799 59.1378 18.1367C59.1378 18.957 59.3019 19.668 59.63 20.2695C59.9764 20.8529 60.4321 21.2995 60.9972 21.6094C61.5805 21.901 62.1912 22.0469 62.8292 22.0469ZM78.3616 25.3281C77.1584 25.3281 76.0829 25.0911 75.135 24.6172C74.2053 24.1432 73.467 23.4688 72.9202 22.5938C72.3915 21.7005 72.1272 20.6432 72.1272 19.4219V11.1914H75.6545V18.793C75.6545 19.8503 75.9006 20.6523 76.3928 21.1992C76.9032 21.7279 77.5595 21.9922 78.3616 21.9922C79.1636 21.9922 79.8108 21.7279 80.303 21.1992C80.8134 20.6523 81.0686 19.8503 81.0686 18.793V11.1914H84.5959V19.4219C84.5959 20.6432 84.3225 21.7005 83.7756 22.5938C83.2287 23.4688 82.4814 24.1432 81.5334 24.6172C80.6037 25.0911 79.5465 25.3281 78.3616 25.3281ZM87.4408 25V5.3125H90.9134V25H87.4408ZM99.2544 25.4102C98.1606 25.4102 97.1398 25.1276 96.1919 24.5625C95.2622 23.9974 94.5057 23.1771 93.9223 22.1016C93.3572 21.026 93.0747 19.7227 93.0747 18.1914C93.0747 16.6419 93.3572 15.3203 93.9223 14.2266C94.5057 13.1328 95.2804 12.2943 96.2466 11.7109C97.2309 11.1276 98.3156 10.8359 99.5005 10.8359C100.266 10.8359 101.023 11.0091 101.77 11.3555C102.536 11.7018 103.174 12.1667 103.684 12.75V5.3125H107.157V25H103.684V22.6758C103.283 23.4232 102.7 24.0703 101.934 24.6172C101.168 25.1458 100.275 25.4102 99.2544 25.4102ZM100.129 21.9375C100.749 21.9375 101.323 21.7734 101.852 21.4453C102.399 21.1172 102.846 20.6523 103.192 20.0508C103.538 19.4492 103.702 18.7383 103.684 17.918V15.9492C103.192 15.4206 102.654 15.0104 102.071 14.7188C101.506 14.4089 100.886 14.2539 100.211 14.2539C99.4822 14.2539 98.8533 14.4453 98.3247 14.8281C97.8143 15.1927 97.4132 15.6758 97.1216 16.2773C96.8299 16.8607 96.6841 17.4987 96.6841 18.1914C96.6841 18.8659 96.8299 19.4948 97.1216 20.0781C97.4132 20.6432 97.8143 21.099 98.3247 21.4453C98.8533 21.7734 99.4549 21.9375 100.129 21.9375ZM116.755 25.4102C115.735 25.4102 114.778 25.237 113.884 24.8906C112.991 24.526 112.198 24.0247 111.505 23.3867C110.831 22.7487 110.302 21.9922 109.92 21.1172C109.537 20.2422 109.345 19.2852 109.345 18.2461C109.345 16.8971 109.646 15.6667 110.248 14.5547C110.849 13.4245 111.679 12.5221 112.736 11.8477C113.793 11.1732 114.996 10.8359 116.345 10.8359C117.694 10.8359 118.852 11.1276 119.818 11.7109C120.802 12.2943 121.55 13.1055 122.06 14.1445C122.589 15.1654 122.853 16.3503 122.853 17.6992V19.1758H112.545V16.7969H119.517C119.481 16.1224 119.298 15.5755 118.97 15.1562C118.642 14.7188 118.241 14.3997 117.767 14.1992C117.293 13.9805 116.792 13.8711 116.263 13.8711C115.552 13.8711 114.933 14.0534 114.404 14.418C113.893 14.7826 113.492 15.293 113.201 15.9492C112.909 16.6055 112.763 17.3711 112.763 18.2461C112.763 19.0299 112.936 19.7227 113.283 20.3242C113.629 20.9258 114.112 21.3997 114.732 21.7461C115.37 22.0924 116.09 22.2656 116.892 22.2656C117.913 22.2656 118.824 22.0651 119.627 21.6641C120.447 21.263 121.094 20.8529 121.568 20.4336V23.6602C121.295 23.9154 120.912 24.1797 120.42 24.4531C119.927 24.7266 119.362 24.9544 118.724 25.1367C118.104 25.319 117.448 25.4102 116.755 25.4102ZM124.905 25V11.1914H128.378V25H124.905ZM128.378 17.2891V13.7891C128.852 12.9688 129.408 12.2852 130.046 11.7383C130.702 11.1914 131.44 10.918 132.26 10.918C132.771 10.918 133.217 11 133.6 11.1641V15.0742C133.327 14.9102 133.035 14.7917 132.725 14.7188C132.434 14.6276 132.115 14.582 131.768 14.582C130.984 14.582 130.319 14.8464 129.772 15.375C129.244 15.8854 128.779 16.5234 128.378 17.2891Z" fill="#20367E"/>
</svg>
